<svg id="Layer_1" data-name="Layer 1" xmlns="http://www.w3.org/2000/svg" viewBox="0 0 602.64 533.62"><defs><style>.cls-1{opacity:0.7;}.cls-2{fill:#fff;}.cls-3{fill:#22343d;}.cls-4{fill:#f2a682;}.cls-5{fill:#0078aa;}.cls-6{fill:#0082ca;}.cls-7{fill:#ffc5b1;}.cls-8{fill:#6acebb;}.cls-9{fill:#ffa091;}.cls-10{fill:#0070a3;}.cls-11{fill:#006493;}.cls-12{fill:#0097d8;}.cls-13{fill:#2fb79e;}.cls-14{fill:#ffb29f;}.cls-15{fill:#ff6073;}.cls-16{fill:#fa394e;}</style></defs><g class="cls-1"><path class="cls-2" d="M455.1,42.82c37.84,19.27,74.9,52,76,94.41.91,34.62-22.65,67-19,101.45,4.59,43,49.94,73.89,52.49,117.09,1.5,25.21-12.38,49-29.6,67.45a186.82,186.82,0,0,1-80,50.49c-61.95,19.54-130.32,5.73-192.92,23-27.91,7.71-54,21.45-82.37,27.28A153.59,153.59,0,0,1,102,519.73C55.4,504.66,15.56,461.56,16.25,412.55c.38-26.84,12.19-51.95,21.43-77.15S53.66,282,44,256.93c-4.83-12.53-13.43-23.23-19.37-35.28-21.4-43.41-4.72-96.73,23.13-136.31C67,58,92.24,33.69,123.42,21.52c51.29-20,104.83-12.59,157.89-12.64C342.74,8.81,399.35,14.44,455.1,42.82Z"/></g><path class="cls-3" d="M490,179.27l.83,1.42c3.6,6.24,17.55,31.35,13.53,39.38-4.6,9.19,8.62,40.22-8,46s-46,9.77-47.7-14.94,29.88-79.3,29.88-79.3"/><polygon class="cls-4" points="395.31 247.95 397.54 289.58 459.95 264.75 395.31 247.95"/><path class="cls-3" d="M380.74,395.56l15.31,9.86s-16.12,53.09-23.46,49.66c-5.56-2.61-3.72-6.66,1.82-22.06s-7.76-30.69-7.76-30.69Z"/><path class="cls-5" d="M448.2,306.43s-23.6-32.87-24.69-40.77c0,0-102.8,38.33-104.62,61.27s51.81,84.45,51.81,84.45l12.11-12.11L358.08,337l38.17-16.77Z"/><path class="cls-3" d="M497.69,369.09s16.52-5.27,19.46-1.69c3.58,4.38,18.43,42.1,11.93,53.84-2.65,4.81-6.56-2.08-12.11-17.47s-20.68-16.62-20.68-16.62Z"/><path class="cls-6" d="M505.62,367.36s10.65,11.21.58,22.38c0,0-60.19,15-78.27-2.76-10.13-10-14.71-54.42-10.67-88l-5.53-54.1s14.81,7.54,19.88,9.78C441.28,259,471,270.28,471,270.28s-20.27,85.87-15.74,90.2S505.62,367.36,505.62,367.36Z"/><path class="cls-7" d="M441.32,167.7s-37.76-27.52-44.65-35.14-22.88-34-39.78-43.8L359,70.13s-1.5-.1-3.59,6.94c0,0-13.55-20.35-16-19.62s7.08,16.07,7.08,16.07S334.2,59.79,331.34,60.57s9.61,16,9.61,16-13.37-12.1-14.83-10.22,10.66,10.74,10.66,10.74-12.52-5.25-13.5-2.88S336,80.77,336,80.77s2.45,9.44,10.9,12.63c0,0,21,40.47,36.89,52.48l51.49,41.72Z"/><path class="cls-7" d="M457.06,169.26s45.1-12.23,54.25-16.89,33.53-23.62,52.8-26.71l.82-17.67s5.27-.06,4.71,7.27c0,0,19.92-14.18,22-12.62s-12.35,12.48-12.35,12.48,16.4-8.43,18.8-6.68-14.68,11.48-14.68,11.48,16.81-6.53,17.5-4.26-13.79,6.23-13.79,6.23,13.57-.44,13.64,2.13-14.21,1.63-14.21,1.63-5.65,7.95-14.69,7.92c0,0-33.5,27.87-52.65,33.42L463.72,194.2Z"/><path class="cls-8" d="M462.3,159.5l18.18,13.85-1.89,18.39S473,229.35,471.79,239c-2,15-1,45-1,45s-25.54,5.53-48,5c-2.47-.06-5-8.51-5-8.51s-3,6.88-5.66,6.43c-18.18-3.12-24.92-10.17-24.92-10.17S399.68,203,412,181.3s16.86-28.61,16.86-28.61l22.3,2.05Z"/><path class="cls-8" d="M416.35,178.37l-18.23-8.69s-4-11.24,14.65-27.4l25.74,12Z"/><path class="cls-8" d="M459.39,161c5.6-7.57,33.68-3,34.54-4.72,0,0,11.47,19.89,7.49,28.55,0,0-20.12,4.43-33.56,1.59C455.56,183.76,449.32,174.54,459.39,161Z"/><path class="cls-9" d="M460.55,146.79s-5.93,2.4-9.94,1.69a14.87,14.87,0,0,0,9.86,1Z"/><path class="cls-8" d="M442.51,154s10.34.33,22.35,8l-6.34,11.68-30.69-2.34,5.33-13Z"/><path class="cls-10" d="M458.32,310c0,.26-1.59.39-3.94-.43a19.24,19.24,0,0,1-7.76-5.49,33.34,33.34,0,0,1-5.06-7.89c-1-2.16-1.45-3.56-1.19-3.7s1.18,1,2.5,2.95a76.23,76.23,0,0,0,5.35,7.22,25.58,25.58,0,0,0,6.78,5.53C457,309.25,458.37,309.66,458.32,310Z"/><path class="cls-11" d="M399.82,290.14c.15.23-.68,1.12-2.39,2a17.92,17.92,0,0,1-14.66.76c-1.79-.74-2.71-1.53-2.59-1.78.27-.57,4.49,1.16,9.89.82S399.5,289.6,399.82,290.14Z"/><path class="cls-10" d="M502.2,373.84c0,.14-1.54.12-4.29-.06s-6.69-.49-11.58-.94l-17.15-1.66-10.12-1.06c-1.76-.2-3.52-.36-5.38-.6a17.38,17.38,0,0,1-5.66-1.63,8.81,8.81,0,0,1-4.11-4.57,16.54,16.54,0,0,1-1-5.64c0-3.62.12-7,.34-10.26a146,146,0,0,1,2.23-17.18c.93-4.84,1.94-8.7,2.72-11.34s1.35-4.06,1.48-4c.34.09-1.22,6-2.71,15.62-.72,4.83-1.41,10.6-1.75,17-.16,3.2-.28,6.63-.21,10.07a14.49,14.49,0,0,0,.9,4.9A6.59,6.59,0,0,0,449,366c3,1.54,6.78,1.55,10.26,2l10.11,1.18,17.1,2.12c4.86.64,8.79,1.19,11.51,1.62S502.21,373.69,502.2,373.84Z"/><path class="cls-10" d="M437.73,371.39c.13.58-1.88,1.53-4.49,2.13s-4.84.62-5,0,1.88-1.53,4.49-2.13S437.6,370.81,437.73,371.39Z"/><path class="cls-10" d="M443.29,373.65c.12.6-1.67,1.42-3.61,2.7s-3.44,2.55-3.94,2.2.43-2.49,2.77-4S443.21,373.08,443.29,373.65Z"/><path class="cls-11" d="M411.76,307c0,.15-1.91.61-5.41,1.43s-8.55,2-14.72,3.78a203.69,203.69,0,0,0-21.23,7.36c-3.91,1.62-8,3.43-12,5.53-2.05,1.06-4.12,2.14-6.17,3.33-1,.59-2.16,1.18-3,1.78a2.09,2.09,0,0,0-1,2.2,26.42,26.42,0,0,0,.86,3.36l1,3.44c.68,2.29,1.39,4.52,2.1,6.71,1.44,4.38,2.93,8.57,4.41,12.54,3,7.93,6,15,8.68,20.78s5,10.48,6.61,13.69,2.49,5,2.35,5.08-1.24-1.58-3.08-4.68-4.37-7.66-7.25-13.43-6-12.79-9.16-20.73c-1.54-4-3.07-8.19-4.55-12.59-.73-2.2-1.46-4.45-2.15-6.75-.34-1.15-.69-2.3-1-3.47a25.52,25.52,0,0,1-.94-3.72,4.45,4.45,0,0,1,.3-2.35,4.63,4.63,0,0,1,1.5-1.79,37.47,37.47,0,0,1,3.22-1.93c2.08-1.2,4.19-2.29,6.27-3.34,4.16-2.11,8.27-3.91,12.25-5.49a175.65,175.65,0,0,1,21.58-7c6.26-1.59,11.39-2.57,14.95-3.14S411.74,306.9,411.76,307Z"/><path class="cls-12" d="M500.8,392.07s1-17-2-25.51c0,0,8-2.5,10.5-1s8.51,25,.5,27.51S500.8,392.07,500.8,392.07Z"/><path class="cls-12" d="M364.89,404.4s3.18,8.76,7.18,9.76,15.68-10.58,15.18-15.08-8-8-8-8-4.45,12.14-14.26,13.41"/><path class="cls-13" d="M439.27,183.48c.13.06-.31,1.37-1.21,3.65s-2.06,5.65-3.41,9.84c-2.73,8.36-6,20.1-9.1,33.17s-5.39,25-6.68,33.73c-.29,2.17-.55,4.14-.78,5.88s-.32,3.23-.44,4.45c-.11,2.44-.24,3.81-.39,3.82s-.3-1.35-.44-3.84c0-1.25,0-2.76.08-4.53s.26-3.76.46-6a281.72,281.72,0,0,1,6.11-34,291.87,291.87,0,0,1,9.75-33.17c1.54-4.15,3-7.45,4.07-9.67S439.14,183.41,439.27,183.48Z"/><path class="cls-3" d="M476.87,156.53s-21.08,59-.53,74.3l-2.1,11.07S440,217.13,469,157.06C469,157.06,476.34,152.32,476.87,156.53Z"/><path class="cls-3" d="M441.31,155.22s-32.94,25-42.43,66.13c0,0-12.63-17.1,33.74-70.85Z"/><path class="cls-6" d="M440,103.11c1-1.24,2.44-2.26,3-3.78.68-1.91-.2-4.07.34-6,.93-3.38,5.22-4.26,8.71-4.52l14.81-1.11a16.5,16.5,0,0,1,6,.27,8.42,8.42,0,0,1,5.39,4.9c.71,1.77.79,3.73,1.44,5.52,2.05,5.6,9.41,9.13,8.84,15.07-.33,3.42-3.39,6.26-3.21,9.7.13,2.36,1.82,4.6,1.28,6.91-.59,2.51-3.46,3.65-5.93,4.41L471,137.37c-2.9.88-6.08,1.75-8.9.63a13.3,13.3,0,0,1-4.05-3C452.1,129.34,431.82,112.84,440,103.11Z"/><path class="cls-6" d="M475.6,113.3a5.29,5.29,0,0,1,4,5.35C479.47,123,476.77,137,467,140.42c-.4.14,4-25.29,4-25.29Z"/><path class="cls-7" d="M438.64,165.52s8.86-14.42,6.93-18c-.48-.9-2.84-1.74-3.84-2.92-5.35-6.36-1.08-29.93,4.58-36.78,4.45-5.4,1.84-4.68,16.65-2.32s12.88,17.38,10.06,25.88c-2.67,8-7.43,12.91-12.47,15.41l-.54,12-2.65,3.4-4,3.79Z"/><path class="cls-7" d="M473,131.38s4-1.85,5.53.69-6.41,5.7-10.17,4.83Z"/><path class="cls-14" d="M458,129.11c-.12,1.17,1.19,2.26,2.92,2.45s3.25-.61,3.38-1.78-1.19-2.26-2.92-2.45S458.08,127.94,458,129.11Z"/><path class="cls-14" d="M441.45,125.86c-.13,1.17,1.18,2.27,2.92,2.45s3.25-.61,3.37-1.78-1.18-2.26-2.92-2.44S441.57,124.7,441.45,125.86Z"/><path class="cls-6" d="M466,120.92c.33-.55.1-2.22-2.56-3.55s-4.62-.17-4.64.52,1,1.22,3.34,2.42S465.62,121.52,466,120.92Z"/><path class="cls-6" d="M453,116.7c.07-.6-.8-1.93-3.6-2s-4,1.71-3.75,2.3,1.33.65,3.82.72S452.92,117.36,453,116.7Z"/><path class="cls-3" d="M450.52,122.44a.84.84,0,1,1-.84-.85A.85.85,0,0,1,450.52,122.44Z"/><polygon class="cls-7" points="444.84 153.99 441.6 178.14 460.02 158.74 452.18 153.65 444.84 153.99"/><polygon class="cls-13" points="456.06 162.41 460.2 157.11 466.05 159.94 457.52 162.99 460.19 167.66 441.5 178.34 456.06 162.41"/><polygon class="cls-13" points="441.6 178.14 444.84 153.99 438.23 153.43 442.2 158.82 437.63 160.32 441.6 178.14"/><path class="cls-6" d="M471.62,124.57a10,10,0,0,0-6-14.56c-4.75-1.35-10.71.65-14.24-2.8-.57-.56-1.11-1.28-1.9-1.39-1.48-.2-2.86,1.84-4.16,1.12a1.85,1.85,0,0,1-.75-1.71c.1-2.48,2.54-4.24,4.93-4.94s5-.77,7.2-1.88c1.84-.92,3.51-2.56,5.56-2.43a7,7,0,0,1,3.22,1.41c2.61,1.72,5.28,3.5,7.09,6a18.76,18.76,0,0,1,2,3.93,35.15,35.15,0,0,1,2.12,17.81c-.37,2.65-1.35,6.07-4.35,6.46C470.45,131.89,470.36,126.82,471.62,124.57Z"/><path class="cls-6" d="M471.37,128.05s-1.25,6.76-5.84,7.34-12.25-7.45-19.68-5.67c-6.2,1.48-6.38.24-6.38.24s-3.48,5.9-7.8,8.1c-7.36,3.75-6.71,13.61,6.8,16s32.5-6.43,34.15-23.29Z"/><path class="cls-15" d="M451.17,129.93c0,.08-.3.07-.81.08a6.46,6.46,0,0,1-2.28-.24,2.64,2.64,0,0,1-1.35-1.15,1.71,1.71,0,0,1,.41-2.18,2.64,2.64,0,0,1,2.26-.46,20.05,20.05,0,0,1,2,.61l1,.33c.32.1.43.1.56,0a2.24,2.24,0,0,0,.75-1.24,10.18,10.18,0,0,0,.53-3c0-1.78-.35-2.88-.18-2.94s.79,1,1,2.91a9.12,9.12,0,0,1-.33,3.37,3,3,0,0,1-1.26,1.92,1.79,1.79,0,0,1-1.4,0l-1-.32c-1.35-.45-2.6-1-3.28-.42s-.08,1.46.62,1.79a10.72,10.72,0,0,0,2,.53C450.93,129.7,451.2,129.86,451.17,129.93Z"/><path class="cls-2" d="M443.7,133.32l11.23,1.12S447,147,443.7,133.32Z"/><path class="cls-3" d="M461,124.58a.85.85,0,1,1-.85-.84A.85.85,0,0,1,461,124.58Z"/><path class="cls-3" d="M378.3,428.63c-.2.24-1.61-.71-3.91-2.08a39.45,39.45,0,0,0-4.11-2.14,24.88,24.88,0,0,0-2.52-1c-.45-.14-.9-.28-1.37-.39a3.56,3.56,0,0,0-1.11-.18h0l.37.26c.35.23.71.44,1.06.64a16.78,16.78,0,0,0,2.11,1,18.71,18.71,0,0,0,3.81,1c2.24.36,3.67.26,3.72.56s-1.35.85-3.83.86a14.9,14.9,0,0,1-4.32-.67,14.49,14.49,0,0,1-2.45-1c-.41-.21-.82-.43-1.23-.69a6.36,6.36,0,0,1-.74-.51,2,2,0,0,1,1.25-3.66,5.16,5.16,0,0,1,1.92.24c.52.14,1,.3,1.5.46a22.38,22.38,0,0,1,2.7,1.18,24.24,24.24,0,0,1,4.13,2.68C377.43,427.06,378.49,428.42,378.3,428.63Z"/><path class="cls-3" d="M377.76,427.59c.22.11-.31,1.69-2.36,3.2a12.83,12.83,0,0,1-3.93,1.87,16,16,0,0,1-2.5.53,11.16,11.16,0,0,1-2.9.11,2.75,2.75,0,0,1-1.83-1,2.26,2.26,0,0,1-.17-2.29,3.63,3.63,0,0,1,1.13-1.29,6,6,0,0,1,1.22-.67,14,14,0,0,1,4.2-1.08c2.4-.22,3.85,0,3.89.25s-1.41.66-3.61,1.24a18.14,18.14,0,0,0-3.62,1.36,5,5,0,0,0-.83.52,1.9,1.9,0,0,0-.48.57c0,.15,0,.1,0,.14a.9.9,0,0,0,.45.16,11.32,11.32,0,0,0,2.29-.07,21.16,21.16,0,0,0,2.27-.36,16,16,0,0,0,3.62-1.25C376.56,428.52,377.48,427.39,377.76,427.59Z"/><path class="cls-3" d="M516.4,396.6c.13,0,.24.43.06,1.15a6.82,6.82,0,0,1-1.49,2.62c-.81.95-1.79,1.93-2.9,3.05l-1.77,1.74a3,3,0,0,1-1.72.9,2.35,2.35,0,0,1-2.11-1,2.83,2.83,0,0,1-.53-2,4.24,4.24,0,0,1,.53-1.62,7.52,7.52,0,0,1,1.79-2.16,12.86,12.86,0,0,1,3.86-2.17c2.31-.85,3.82-1,3.9-.7s-1.25.94-3.26,2.07a16.58,16.58,0,0,0-3.18,2.26c-1,.85-1.9,2.64-1.39,3.06a.42.42,0,0,0,.18.15s.24-.08.52-.34l1.83-1.62c1.18-1,2.3-1.94,3.17-2.68C515.66,397.87,516.1,396.56,516.4,396.6Z"/><path class="cls-3" d="M518.52,398.24c.29.1-.11,1.94-.64,4.89-.26,1.48-.53,3.22-.77,5.2a12.89,12.89,0,0,1-.76,3.31,5.79,5.79,0,0,1-1.1,1.71,3.6,3.6,0,0,1-2.1,1.15,2.74,2.74,0,0,1-2.44-1,4.65,4.65,0,0,1-.91-1.93,7.57,7.57,0,0,1,.1-3.59,11.5,11.5,0,0,1,2.9-4.9c2.21-2.21,3.75-3.24,3.94-3.08s-1,1.73-2.78,4.06a11.35,11.35,0,0,0-2.13,4.38,5.7,5.7,0,0,0,0,2.63,2.44,2.44,0,0,0,.49,1.05c.24.27.39.31.55.29a1.55,1.55,0,0,0,.82-.51,3.65,3.65,0,0,0,.71-1.06,12.66,12.66,0,0,0,.74-2.77,41,41,0,0,1,1.25-5.26C517.33,399.83,518.25,398.15,518.52,398.24Z"/><polygon class="cls-15" points="281.27 69.75 331.38 110.4 377.94 47.49 333.83 12.08 281.27 69.75"/><path class="cls-2" d="M299.08,49.68c.75-.06,1.5,8.76,2.38,19.56s1.55,19.5.81,19.56-2.08-8.65-3-19.45S298.33,49.74,299.08,49.68Z"/><path class="cls-2" d="M353.89,25.52c.13.71-8.27,2.47-19,3.63s-19.46,1.37-19.5.65S324,28,334.57,26.87,353.76,24.75,353.89,25.52Z"/><path class="cls-7" d="M356.89,88.76l2.62-22.05s-6.19.17-6.35,14l-1.79,4.56L354.14,89Z"/><path class="cls-6" d="M178.32,195.72c.35-.23,2.42,2.74,6.41,6.87,1,1,2.11,2.15,3.39,3.25s2.65,2.25,4.12,3.44A67.82,67.82,0,0,0,214,220.42c1.82.49,3.55,1,5.21,1.32s3.19.64,4.61.85c5.69.82,9.3.76,9.32,1.18s-3.59,1-9.51.6a40.7,40.7,0,0,1-4.81-.56,54.44,54.44,0,0,1-5.45-1.15,63.23,63.23,0,0,1-11.92-4.56,64.14,64.14,0,0,1-10.67-7,55.07,55.07,0,0,1-4.12-3.75,41.51,41.51,0,0,1-3.27-3.57C179.62,199.21,178.08,195.86,178.32,195.72Z"/><path class="cls-7" d="M165,148.21s17.07-.92,25.35,2.76c5.66,2.52,40,23.53,40,23.53l10.89-63.63,9.61-.1s3.57,61.43-6.74,78.63-65.92-19.49-65.92-19.49Z"/><path class="cls-8" d="M141.67,141.6c-4.9.48-11.19-.39-15.27-3.15s-9.67-6.71-13-10.32c-9.06-9.8,5.87-32.71,15.73-35,11.79-2.73,23.92,5,27.18,16.47a16.44,16.44,0,0,1-.16,8.15c-1.95,8.55-7.81,16.87-16.35,18.84"/><path class="cls-14" d="M188.23,436.59s-10.72,43.75-14.38,36.77-6.47-24.93-5.81-27.71,6.08-15.52,6.08-15.52Z"/><path class="cls-7" d="M247.13,115.09c2.82.52.63-.46,4.29.66,6-5.73,5.21-14.73,5.21-14.73s10.07-8.47,8.4-10.13-10.42,7.27-10.42,7.27,7.11-11.85,5.2-12.92-8.92,14-8.92,14,5.16-17.33,2.44-17-8.24,16.41-8.24,16.41,2.61-16.42.27-16.16-6.56,22.36-6.56,22.36c-4.29-5.23-7.75-1.83-7.75-1.83l10.87,12A41.12,41.12,0,0,1,247.13,115.09Z"/><path class="cls-7" d="M143.28,100.89c3.67-.37,12.45,5.25,16.85,14.79,2.47,5.34,4.17,10.76,1.33,19.45-1.33,4.08-4.12,4.59-4.74,6.42-.79,2.32,1.82,9.62,1.82,9.62l-10.4,4.2c-.67-5-1.44-10.06-6.55-12.24a52.76,52.76,0,0,1-5.76-2.37c-4.87-2.79-7.47-8.9-9.47-13.9C124.86,123.13,121.71,103.05,143.28,100.89Z"/><path class="cls-16" d="M151.83,246l15.72-10.25s69.38,83.93,74.35,110-54.06,92.14-54.06,92.14l-13.72-7.79s18.85-57.59,27.69-73c3.35-5.86-28.86-27.47-38.07-46.81C148.67,278.63,151.83,246,151.83,246Z"/><path class="cls-7" d="M62,378.24s-42.48.67-36.27-4.19S49.1,363.19,52,363.35s16.36,3.17,16.36,3.17Z"/><path class="cls-15" d="M138.55,241.82,165,251.43s26.42,116.24,16.33,134.49-10.4,13.19-56.25,9.86c-34.32-2.5-63.53-17.53-63.53-17.53l6.79-11.73s51-14.7,62.08-7c0,0-5.77-16.33-13.45-39.39S104,273.52,138.55,241.82Z"/><path class="cls-7" d="M171.06,162.63c0-7.72-2.48-13.31-10.2-13.31s-18.4,2.71-18.4,10.43,19.34,29.08,27.07,29.08S171.06,170.36,171.06,162.63Z"/><path class="cls-3" d="M165,148.21S189.59,168.9,189.59,206c0,0-.24,38.08-6,47.33a51.53,51.53,0,0,1-21,0c-12.22-2.52-24-11.53-24-11.53s-13.78-46.69-13.73-59.3c0-9.53,12.61-28.66,12.61-28.66l10.31-1.7,16.71,30.09-4.85-32.91Z"/><path class="cls-7" d="M128.17,130.1s-5.76-.84-6.09,3,11.53.1,11.53.1Z"/><path class="cls-15" d="M148.73,123.89c0-.19,1.07-.42,2.62-1.18a3.18,3.18,0,0,0,1-.72,1.13,1.13,0,0,0,.28-.48s0-.07,0-.08,0,0-.14,0a5.78,5.78,0,0,1-.92.11,8,8,0,0,1-2.16-.18,7.8,7.8,0,0,1-3.66-2,7.59,7.59,0,0,1-1.83-2.81c-.65-1.82-.36-3-.21-3s.28,1.12,1.06,2.62a7.39,7.39,0,0,0,4.93,3.85,8.05,8.05,0,0,0,1.81.18,5.67,5.67,0,0,0,1-.1,2.45,2.45,0,0,1,.74-.09h.35c.11,0,.11.21.17.3a2,2,0,0,1,0,1.49,2.45,2.45,0,0,1-.6.88,4,4,0,0,1-1.45.8C149.92,124.17,148.74,124.05,148.73,123.89Z"/><path class="cls-2" d="M157.31,124.34l-14.09,5.55S155.6,138.42,157.31,124.34Z"/><path class="cls-14" d="M137.21,127c.5.95,2,1.11,3.47.37s2.15-2.12,1.65-3.07-2.05-1.11-3.46-.37S136.71,126.06,137.21,127Z"/><path class="cls-14" d="M152.93,118.67c.42,1,2,1.27,3.42.64s2.31-2,1.89-2.93-2-1.27-3.43-.64S152.5,117.69,152.93,118.67Z"/><path class="cls-9" d="M158.14,139.78s-4.93,4.14-10.08,2.81c0,0,1.77,2.66,8.61,1.68C156.67,144.27,156.1,141.34,158.14,139.78Z"/><path class="cls-8" d="M133.29,116.26c-.34-.1-.08-1.5,1.28-2.41s2.76-.62,2.72-.26-1,.68-2,1.36S133.63,116.41,133.29,116.26Z"/><path class="cls-8" d="M148.79,108.51c.07.38-1.12.83-2.51,1.22s-2.45.78-2.68.49.74-1.34,2.31-1.76S148.73,108.17,148.79,108.51Z"/><path class="cls-6" d="M183.46,454.45s-1.69,21.53-8,21S168,445.65,168,445.65l4.07-10.53S176,483.87,183.46,454.45Z"/><path class="cls-6" d="M58.58,364.52s-5.88-2.28-10.86-.69S25.23,371.64,23.88,375,42,378,42,378s-7.26-.79-5.62-3.23C39.32,370.43,58.58,364.52,58.58,364.52Z"/><path class="cls-3" d="M140.27,119.4c-.12.4-1.31.38-2.62.78s-2.33,1-2.65.71.45-1.66,2.24-2.16S140.44,119,140.27,119.4Z"/><path class="cls-3" d="M147.5,116.53c-.29-.28.37-1.57,1.75-2.77s3-1.5,3.14-1.09-.94,1.16-2.16,2.24S147.81,116.83,147.5,116.53Z"/><path class="cls-6" d="M277.51,221c2.18-.39,5-.62,6,1.32a5.17,5.17,0,0,1,.42,2.41,221.93,221.93,0,0,1-3.22,40.36c-.68,4-1.7,8.27-4.94,10.64-2.93,2.15-6.87,2.1-10.49,1.81A131.48,131.48,0,0,1,210,260.24c.69-8.89,5.78-16.48,10.43-23.78A116.3,116.3,0,0,0,227.16,225a101.06,101.06,0,0,0,3.38-10.13s15.88,4.57,21.41,5.71A67.62,67.62,0,0,0,277.51,221Z"/><path class="cls-2" d="M221.22,261.22c3.16-5,7.66-11.94,11-20.27s4.53-16.49,5.53-22.34c.09-.58.17-1.11.26-1.64l1.62.45c0,.46-.06.91-.1,1.41a83.45,83.45,0,0,1-5,23,89.62,89.62,0,0,1-11.85,20.36c-.92,1.23-1.77,2.32-2.53,3.26l-1.28-.6C219.56,263.82,220.33,262.6,221.22,261.22Z"/><path class="cls-2" d="M245.25,219l1.92.5a160.22,160.22,0,0,1-3.3,23.47,156.18,156.18,0,0,1-7.73,25.2c-.47,1.17-.92,2.21-1.35,3.19-.48-.15-1-.32-1.44-.49a257,257,0,0,0,8-28.44C243.34,233.53,244.5,225.33,245.25,219Z"/><path class="cls-2" d="M257.15,221.44c.68.09,1.36.17,2.05.23a190.2,190.2,0,0,1-3.06,21.58,187,187,0,0,1-7.07,25.61c-.83,2.28-1.59,4.22-2.25,5.78-.4-.09-.8-.17-1.2-.27,1.74-6.12,5.29-17.83,8-31.62C255.26,234.84,256.36,227.49,257.15,221.44Z"/><path class="cls-2" d="M264.41,244.44c1-5.16,2-10,3-14.47.66-2.93,1.33-5.61,1.89-8.07.69,0,1.38-.06,2.06-.12-.44,2.66-1.06,5.55-1.66,8.67-.86,4.44-1.8,9.33-2.79,14.46-1.93,10.26-3.54,19.58-4.74,26.32-.41,2.27-.76,4.21-1.08,5.83-.42-.05-.84-.08-1.26-.14.12-1.65.31-3.64.56-5.95C261.13,264.15,262.47,254.74,264.41,244.44Z"/><path class="cls-2" d="M274.48,243.22c1-5.6,1.86-10.93,2.69-15.79.37-2.31.74-4.5,1.06-6.57a11.94,11.94,0,0,1,2.15-.13c-.25,2.22-.57,4.58-.9,7.05-.67,4.9-1.5,10.27-2.5,15.88-2,11.23-4.25,21.31-6.12,28.54-.53,2.07-1,3.87-1.48,5.44-.46,0-.92,0-1.38,0,.31-1.67.68-3.61,1.11-5.85C270.53,264.49,272.51,254.4,274.48,243.22Z"/><path class="cls-6" d="M158.66,147.7c0-.08.44-.27,1.35-.56a17.34,17.34,0,0,1,1.72-.47l2.42-.29a29.08,29.08,0,0,1,3.06,0c1.11.1,2.31.33,3.6.58a32.2,32.2,0,0,1,8.18,3.4,38.35,38.35,0,0,1,15.2,17A39.42,39.42,0,0,1,197,180.8a111.22,111.22,0,0,1-.32,14.44c-.73,9.75-1.38,19,.56,27.12a47.24,47.24,0,0,0,9.61,19.6,33.41,33.41,0,0,0,11.66,9,34,34,0,0,0,3.82,1.43c.89.29,1.36.49,1.34.58s-.51.06-1.46-.08a21.55,21.55,0,0,1-4.07-1,31.77,31.77,0,0,1-12.64-8.76A47.29,47.29,0,0,1,195,222.9c-2.17-8.51-1.54-18.14-.82-27.84a114.6,114.6,0,0,0,.37-14.12,34,34,0,0,0-16.45-29,32.54,32.54,0,0,0-7.61-3.56c-1.2-.3-2.33-.58-3.37-.75s-2-.26-2.9-.26l-2.34,0c-.68.06-1.24.18-1.7.23C159.2,147.76,158.69,147.79,158.66,147.7Z"/><polygon class="cls-2" points="182.6 283.67 123.23 274.22 134.7 198.66 182.6 202.71 182.6 283.67"/><path class="cls-7" d="M137.43,153.86A41,41,0,0,0,111.06,167c-11.46,12.61-21.78,59-21.21,68.22s63.05,27.51,63.05,27.51l2.3-12s-45.29-13.18-47-22.93S129,184.86,129.4,184.25c-1.05,1.55,5.41-.59,5.6-.71,3.92-2.43,5.36-7.45,5.46-11.89C140.48,170.41,138.45,153.82,137.43,153.86Z"/><path class="cls-7" d="M146,255.15c-.22,2.85.55.27-.17,4,6.33,5.36,15.17,3.92,15.17,3.92s9.5,9.12,11,7.27-8.34-9.58-8.34-9.58,12.54,5.81,13.4,3.8-14.84-7.39-14.84-7.39,17.78,3.29,17.13.63-17.19-6.45-17.19-6.45,16.61.85,16.1-1.46-22.93-4.13-22.93-4.13c4.74-4.82,1-7.91,1-7.91l-10.95,12.34A29.13,29.13,0,0,1,146,255.15Z"/><path class="cls-8" d="M125.12,98.71a24.12,24.12,0,0,1-15.66-20.45c-.23-3.14.16-6.35-.54-9.42-1.82-8-10.09-12.49-17-17A85.39,85.39,0,0,1,62.31,18.16c-1.5-3.07-2.91-6.35-5.54-8.53s-6-2.92-9.34-3.36C35.29,4.65,22.18,7,12.83,15S-1,36.89,4.05,48c9.84,21.54,45.86,20.89,54.28,43,1.14,3,1.64,6.2,2.81,9.19A22.74,22.74,0,0,0,84.7,114.07c9.13-1.26,17.17-8.14,26.36-7.6,3,.17,5.93,1.11,8.79.41s5.33-4.17,3.62-6.57"/><path class="cls-8" d="M119.38,99.88c.05.16-1.77.78-5,2.15s-7.66,3.59-13.18,6.47c-2.77,1.42-5.81,3-9.2,4.47a54.48,54.48,0,0,1-11.26,3.68,38,38,0,0,1-13.18.53,27.88,27.88,0,0,1-6.83-1.91,23.57,23.57,0,0,1-6.16-4c-3.73-3.35-6-7.65-8-11.69s-3.61-8-5.67-11.49c-4-7-10.34-11.17-15.78-13.89a106.77,106.77,0,0,0-13.6-5.39c-3.29-1.1-5.12-1.73-5.08-1.88s1.94.22,5.32,1.08a84,84,0,0,1,14,4.82,44.78,44.78,0,0,1,8.87,5.32,32.67,32.67,0,0,1,7.94,8.92c2.2,3.59,3.93,7.6,5.87,11.59s4.17,8,7.55,11a21.76,21.76,0,0,0,5.58,3.63,26,26,0,0,0,6.28,1.78,36.93,36.93,0,0,0,12.49-.39,54.12,54.12,0,0,0,10.95-3.38c3.35-1.37,6.41-2.85,9.22-4.19a130,130,0,0,1,13.55-5.89C117.44,100.11,119.35,99.76,119.38,99.88Z"/><path class="cls-8" d="M109.19,80.05c-.37,0-.29-4.46-1.39-11.45a46,46,0,0,0-3.48-11.79,28.76,28.76,0,0,0-3.76-6.08,26.2,26.2,0,0,0-5.65-5.11c-4.42-2.9-9.34-4.68-13.66-6.61S73,35.41,69.73,33.93C63.2,31,59.22,29,59.33,28.76s4.31,1.19,11,3.77c3.34,1.3,7.3,2.87,11.69,4.65s9.34,3.54,14.09,6.66a26.92,26.92,0,0,1,6.1,5.57A29.83,29.83,0,0,1,106.12,56a42.87,42.87,0,0,1,3.18,12.39,55,55,0,0,1,.29,8.55C109.5,79,109.33,80.06,109.19,80.05Z"/></svg>